<?xml version="1.0" encoding="UTF-8"?>
<svg width="753px" height="753px" viewBox="0 0 753 753" version="1.1" xmlns="http://www.w3.org/2000/svg" xmlns:xlink="http://www.w3.org/1999/xlink">
    <title>Group 2</title>
    <g id="Page-1" stroke="none" stroke-width="1" fill="none" fill-rule="evenodd">
        <g id="Group-2">
            <path d="M375.931992,74 C209.731997,74 75,208.73333 75,374.933326 C75,541.133322 209.731997,675.866652 375.931992,675.866652 C542.131988,675.866652 676.863985,541.133322 676.863985,374.933326 C676.863985,208.73333 542.131988,74 375.931992,74 Z" id="path4782" fill="#72AB3A" fill-rule="nonzero" transform="translate(375.932, 374.9333) scale(-1, 1) rotate(-180) translate(-375.932, -374.9333)"></path>
            <g id="Group" transform="translate(149.1991, 228.8533)" fill="#FFFFFF" fill-rule="nonzero">
                <path d="M423.03555,78.4133314 C421.310217,77.0933314 419.596883,75.6933314 417.874217,74.5066648 C413.974217,71.8266649 411.106217,68.346665 407.02355,63.5466651 C410.70355,65.5999984 413.580884,66.5199983 415.524883,68.4399983 C418.51555,71.3999982 422.07555,74.8666648 423.03555,78.4133314 Z" id="path4784-path" transform="translate(415.0296, 70.98) scale(-1, 1) rotate(-180) translate(-415.0296, -70.98)"></path>
                <path d="M407.574217,91.8274414 C406.786217,91.7607748 405.814217,92.0807747 405.23955,91.5741081 C401.243551,88.0807748 397.266217,84.4807749 393.194217,79.4674417 C399.108884,82.080775 402.494217,88.2007748 407.212884,90.8274414 L407.574217,91.8274414 Z" id="path4784-path" transform="translate(400.3842, 85.6671) scale(-1, 1) rotate(-180) translate(-400.3842, -85.6671)"></path>
                <path d="M390.820884,96.5199976 L388.778217,94.7866643 L389.127551,94.3866643 C389.456884,94.5866643 389.970217,94.7866643 390.079551,94.9599976 C390.410217,95.4799976 390.584884,95.9999976 390.820884,96.5199976 L390.820884,96.5199976 Z" id="path4784-path" transform="translate(389.7996, 95.4533) scale(-1, 1) rotate(-180) translate(-389.7996, -95.4533)"></path>
                <path d="M381.160884,96.4933309 C378.048884,94.7866643 375.888884,92.5866644 374.186218,89.6399978 C376.660884,91.4399977 379.656884,92.8399977 381.160884,96.4933309 Z" id="path4784-path" transform="translate(377.6736, 93.0667) scale(-1, 1) rotate(-180) translate(-377.6736, -93.0667)"></path>
                <path d="M383.875551,103.706664 L383.211551,104.306664 C381.202218,102.186664 378.398218,100.826664 376.946218,98.1599975 L377.419551,97.6133309 L383.875551,103.706664 Z" id="path4784-path" transform="translate(380.4109, 100.96) scale(-1, 1) rotate(-180) translate(-380.4109, -100.96)"></path>
                <path d="M366.864885,98.7733309 C363.972885,97.5066642 363.004885,96.4266643 363.027551,94.173331 C364.491551,95.9333309 365.404885,97.0266642 366.864885,98.7733309 Z" id="path4784-path" transform="translate(364.946, 96.4733) scale(-1, 1) rotate(-180) translate(-364.946, -96.4733)"></path>
                <path d="M380.012884,124.906664 C376.772884,120.879997 373.392885,119.546664 369.584885,117.719997 C369.946218,116.786664 370.160885,116.239997 370.507551,115.346664 C373.984885,118.93333 377.423551,121.306664 380.012884,124.906664 Z" id="path4784-path" transform="translate(374.7989, 120.1267) scale(-1, 1) rotate(-180) translate(-374.7989, -120.1267)"></path>
                <path d="M362.171551,122.73333 C360.810218,121.466664 359.543552,120.346664 358.326218,119.159997 C357.894218,118.73333 357.579552,118.17333 357.195552,117.666664 C360.915552,117.999997 361.410218,118.49333 362.171551,122.73333 Z" id="path4784-path" transform="translate(359.6836, 120.2) scale(-1, 1) rotate(-180) translate(-359.6836, -120.2)"></path>
                <path d="M362.007551,125.606017 C361.823551,125.006017 361.496885,124.406017 361.624885,124.232684 C361.775551,124.046017 362.320885,124.219351 362.694218,124.232684 C362.942218,124.792684 363.335551,125.446017 363.368885,125.859351 C363.382218,126.032684 362.628885,125.739351 362.007551,125.606017 L362.007551,125.606017 Z" id="path4784-path" transform="translate(362.4825, 125.0297) scale(-1, 1) rotate(-180) translate(-362.4825, -125.0297)"></path>
                <path d="M355.026218,120.946664 C352.516885,118.77333 350.628885,117.146664 348.742218,115.519997 L349.134218,114.799997 C351.351552,115.999997 353.463552,117.359997 355.026218,120.946664 L355.026218,120.946664 Z" id="path4784-path" transform="translate(351.8842, 117.8733) scale(-1, 1) rotate(-180) translate(-351.8842, -117.8733)"></path>
                <path d="M345.507552,111.239997 C346.843552,113.026664 348.156885,114.77333 350.031552,117.279997 C349.066218,117.53333 348.291552,117.746664 347.032885,118.079997 C345.960885,115.09333 343.430219,112.053331 345.507552,111.239997 L345.507552,111.239997 Z" id="path4784-path" transform="translate(347.3723, 114.66) scale(-1, 1) rotate(-180) translate(-347.3723, -114.66)"></path>
                <path d="M352.416885,138.81333 C349.458218,136.106663 347.476885,134.29333 344.648885,131.706663 C349.650218,134.37333 349.650218,134.37333 352.416885,138.81333 Z" id="path4784-path" transform="translate(348.5329, 135.26) scale(-1, 1) rotate(-180) translate(-348.5329, -135.26)"></path>
                <polygon id="path4784-path" transform="translate(354.0562, 152.64) scale(-1, 1) rotate(-180) translate(-354.0562, -152.64)" points="355.423552 154.186663 352.484885 151.506663 352.794218 151.09333 355.627552 153.919996"></polygon>
                <path d="M348.676885,150.25333 C352.336885,153.199996 352.336885,153.199996 350.302218,154.133329 C349.636885,152.53333 349.212885,151.53333 348.676885,150.25333 Z" id="path4784-path" transform="translate(350.173, 152.1933) scale(-1, 1) rotate(-180) translate(-350.173, -152.1933)"></path>
                <path d="M325.680886,130.786349 C326.882219,130.853015 327.679552,130.893015 328.475552,130.933015 L329.490219,132.213015 C328.988886,132.453015 328.596886,132.866349 327.928886,132.853015 C327.692886,132.839682 326.780886,131.813015 325.680886,130.786349 L325.680886,130.786349 Z" id="path4784-path" transform="translate(327.5856, 131.8198) scale(-1, 1) rotate(-180) translate(-327.5856, -131.8198)"></path>
                <path d="M300.432886,106.747256 C300.39022,107.160589 300.487553,107.720589 300.248886,107.920589 C300.119553,108.040589 299.415553,107.560589 298.523553,107.147256 C298.771553,106.627256 298.79822,106.160589 299.124886,106.053922 C299.316886,105.987256 299.980886,106.493922 300.432886,106.747256 L300.432886,106.747256 Z" id="path4784-path" transform="translate(299.4782, 106.9936) scale(-1, 1) rotate(-180) translate(-299.4782, -106.9936)"></path>
                <path d="M321.286219,136.615338 C320.742219,135.988672 320.303553,134.815338 320.492886,134.495338 C320.648886,134.242005 321.858219,134.655338 322.487552,135.162005 C323.607552,136.055338 324.643552,137.255338 326.079552,138.682005 C324.734219,140.295338 322.930219,138.548672 321.286219,136.615338 Z" id="path4784-path" transform="translate(323.2638, 136.8677) scale(-1, 1) rotate(-180) translate(-323.2638, -136.8677)"></path>
                <path d="M316.307553,83.2124032 C320.046219,83.5190699 320.046219,83.5190699 322.792886,87.9457365 C320.390219,87.9990698 318.430219,85.7457365 316.307553,83.2124032 Z" id="path4784-path" transform="translate(319.5502, 85.5795) scale(-1, 1) rotate(-180) translate(-319.5502, -85.5795)"></path>
                <path d="M350.463552,101.613331 C352.371552,102.093331 354.279552,102.586664 356.126218,103.066664 C356.966218,104.973331 357.763552,106.773331 359.095552,109.799997 C355.554218,106.839997 353.115552,104.813331 350.676885,102.773331 L350.463552,101.613331 Z" id="path4784-path" transform="translate(354.7796, 105.7067) scale(-1, 1) rotate(-180) translate(-354.7796, -105.7067)"></path>
                <path d="M347.091552,87.2533312 C351.022218,89.7599978 354.539552,92.9466643 357.748885,96.6266643 C357.903552,96.8133309 357.594218,97.2133309 357.423552,97.7599976 C353.723552,94.3466643 349.871552,91.493331 347.091552,87.2533312 L347.091552,87.2533312 Z" id="path4784-path" transform="translate(352.4412, 92.5067) scale(-1, 1) rotate(-180) translate(-352.4412, -92.5067)"></path>
                <polygon id="path4784-path" transform="translate(339.4996, 72.14) scale(-1, 1) rotate(-180) translate(-339.4996, -72.14)" points="337.967552 71.2399982 338.372885 70.5999982 341.031552 73.2533315 340.736885 73.6799982"></polygon>
                <path d="M326.715552,60.1333318 C330.744886,62.7866651 334.568886,65.306665 338.755552,68.066665 L337.008885,69.8133316 C340.094219,73.4533315 341.122219,71.0399982 344.182219,73.1866648 C343.751552,74.5066648 343.386219,75.6266648 343.046219,76.6666648 C339.554219,74.4133315 337.519552,70.5466649 334.487552,69.7066649 C333.708886,68.8266649 332.943552,67.8933316 332.088886,67.066665 C329.798219,64.866665 327.667552,62.6666651 326.715552,60.1333318 L326.715552,60.1333318 Z" id="path4784-path" transform="translate(335.4489, 68.4) scale(-1, 1) rotate(-180) translate(-335.4489, -68.4)"></path>
                <path d="M354.851552,79.999998 L359.286218,84.4266646 C357.858218,83.2666646 355.667552,82.999998 354.851552,79.999998 Z" id="path4784-path" transform="translate(357.0689, 82.2133) scale(-1, 1) rotate(-180) translate(-357.0689, -82.2133)"></path>
                <path d="M348.235552,70.5483453 C347.179552,69.3083454 345.540885,67.8283454 345.119552,66.7750121 C344.711552,65.7616788 345.127552,64.5350121 345.931552,64.5883455 C347.515552,64.6683455 349.047552,66.4283454 350.659552,68.855012 C346.560885,66.2150121 349.692885,70.2016787 348.235552,70.5483453 Z" id="path4784-path" transform="translate(347.8101, 67.5675) scale(-1, 1) rotate(-180) translate(-347.8101, -67.5675)"></path>
                <path d="M395.534217,108.733473 C396.968884,111.240139 398.084884,113.200139 399.190217,115.133473 C397.836884,114.040139 396.380884,113.053473 395.192884,111.826806 C394.435551,111.053473 393.574217,109.493473 393.706217,109.040139 C393.862217,108.506806 395.034217,108.786806 395.534217,108.733473 L395.534217,108.733473 Z" id="path4784-path" transform="translate(396.4415, 111.9201) scale(-1, 1) rotate(-180) translate(-396.4415, -111.9201)"></path>
                <path d="M316.408886,153.613329 C313.011553,151.33333 309.615553,149.05333 305.327553,146.159996 C306.208886,145.026663 306.716886,144.37333 307.24622,143.69333 L316.548886,152.999996 L316.408886,153.613329 Z" id="path4784-path" transform="translate(310.9382, 148.6533) scale(-1, 1) rotate(-180) translate(-310.9382, -148.6533)"></path>
                <path d="M322.239552,179.513724 C321.203553,180.18039 320.459553,180.66039 319.714219,181.14039 L318.506219,179.78039 C319.200886,179.207057 319.136886,177.713724 322.239552,179.513724 Z" id="path4784-path" transform="translate(320.3729, 179.8969) scale(-1, 1) rotate(-180) translate(-320.3729, -179.8969)"></path>
                <path d="M317.632886,188.648987 C316.967553,187.168987 316.663553,186.008987 318.436886,186.675653 C318.735553,186.78232 319.544886,187.648987 319.687553,188.008987 C320.444886,189.90232 319.248886,189.515653 317.632886,188.648987 Z" id="path4784-path" transform="translate(318.5155, 187.9245) scale(-1, 1) rotate(-180) translate(-318.5155, -187.9245)"></path>
                <path d="M310.467553,193.469303 C310.058219,193.629303 309.328886,193.41597 308.235553,193.282637 C308.046219,192.282637 307.69022,191.49597 307.924886,191.362637 C308.214219,191.21597 309.028886,191.429304 309.550219,191.829304 C309.935553,192.122637 310.599553,193.41597 310.467553,193.469303 L310.467553,193.469303 Z" id="path4784-path" transform="translate(309.1661, 192.4213) scale(-1, 1) rotate(-180) translate(-309.1661, -192.4213)"></path>
                <path d="M280.160887,187.573329 C275.87822,186.293329 275.811554,186.226662 271.19022,178.906662 C276.904887,183.026662 278.000887,184.106662 280.160887,187.573329 Z" id="path4784-path" transform="translate(275.6756, 183.24) scale(-1, 1) rotate(-180) translate(-275.6756, -183.24)"></path>
                <path d="M299.292886,203.564008 C297.539553,204.177341 295.847553,203.097341 293.491553,200.097341 C295.55422,199.817341 297.243553,201.190675 299.292886,203.564008 Z" id="path4784-path" transform="translate(296.3922, 201.8953) scale(-1, 1) rotate(-180) translate(-296.3922, -201.8953)"></path>
                <path d="M269.37422,196.919995 C263.083554,193.706662 261.190221,191.893329 261.536887,189.466662 C264.147554,191.946662 266.760887,194.426662 269.37422,196.919995 Z" id="path4784-path" transform="translate(265.4359, 193.1933) scale(-1, 1) rotate(-180) translate(-265.4359, -193.1933)"></path>
                <path d="M285.176887,215.186661 L283.51822,214.506661 C283.400887,214.079995 283.283553,213.653328 283.123553,213.079995 C283.715553,213.359995 284.315553,213.506661 284.588887,213.813328 C284.92622,214.199995 284.992887,214.719995 285.176887,215.186661 Z" id="path4784-path" transform="translate(284.1502, 214.1333) scale(-1, 1) rotate(-180) translate(-284.1502, -214.1333)"></path>
                <path d="M357.740885,43.4338904 C363.432885,47.140557 367.924885,52.9272235 373.335551,55.7805568 C371.828885,54.2072235 370.322218,52.6205568 368.212885,50.3938902 C371.394218,52.4605568 373.712885,53.9805568 376.031551,55.4872234 L376.043551,55.4738901 C376.334218,56.1538901 376.524884,56.9672234 377.004884,57.4338904 C378.376884,58.75389 379.895551,59.91389 381.336884,61.1272233 C380.923551,63.8872232 377.471551,58.7272234 376.064884,59.3005567 C378.222218,61.6205566 380.154218,63.7005566 382.300884,66.0072232 C380.899551,66.7538898 379.494218,66.5672232 377.228884,63.9005566 C376.788884,64.2072232 376.396884,64.4872232 376.006218,64.7672232 C374.396885,63.5005566 372.782218,62.2338899 371.006218,60.83389 C371.366218,59.71389 371.596885,58.99389 371.923551,57.9805567 C367.175551,53.4605568 361.304885,49.6872236 357.740885,43.4338904 L357.740885,43.4338904 Z" id="path4784-path" transform="translate(370.0209, 54.9103) scale(-1, 1) rotate(-180) translate(-370.0209, -54.9103)"></path>
                <path d="M382.723551,55.3599986 L382.296884,55.7599986 L376.102218,50.7733321 C376.548884,50.3333321 376.994218,49.8799988 377.452884,49.4266654 C379.420884,51.6399987 381.071551,53.5066653 382.723551,55.3599986 Z" id="path4784-path" transform="translate(379.4129, 52.5933) scale(-1, 1) rotate(-180) translate(-379.4129, -52.5933)"></path>
                <polygon id="path4784-path" transform="translate(380.3009, 55.82) scale(-1, 1) rotate(-180) translate(-380.3009, -55.82)" points="381.907551 56.9999986 381.488884 57.4266652 378.694218 54.6266653 379.114218 54.213332"></polygon>
                <path d="M450.094216,334.159992 C448.871549,332.026658 448.464883,330.799992 447.640883,329.973325 C443.196883,325.453325 438.662216,321.026659 434.13555,316.599992 C430.46355,313.039992 426.788883,309.466659 423.09955,305.893326 C423.572883,304.919992 424.26755,304.679992 426.430217,306.826659 C430.342216,310.719992 434.390216,314.479992 438.37155,318.293325 C442.140883,321.919992 445.895549,325.546659 450.082216,328.866658 C448.004883,326.546659 445.964883,324.213333 443.843549,321.933325 C436.71155,314.279992 429.164883,307.079992 421.47555,300.013326 C419.692883,298.386659 418.140883,296.386659 416.642217,294.053326 C417.954217,295.066659 419.26755,296.066659 421.738217,297.973326 C417.48755,291.893326 412.682217,288.079993 408.57555,283.82666 C404.462217,279.559993 400.203551,275.42666 396.008884,271.22666 L396.264884,270.62666 C398.123551,272.093327 399.983551,273.54666 402.044884,275.159993 C403.332884,274.853326 403.692884,273.973326 401.428884,271.66666 C398.080884,268.239993 394.668884,264.879993 390.990217,261.199993 C391.276884,259.453327 389.428884,256.039994 392.799551,257.079994 C397.159551,260.479993 395.298217,262.639993 398.007551,265.94666 C400.812884,269.373327 404.054217,270.399993 406.906217,273.54666 C406.44355,272.479993 405.97955,271.413327 405.170217,269.54666 C407.194217,271.30666 408.734217,272.639993 410.274217,273.98666 C408.196884,270.959993 408.196884,270.959993 400.764884,264.453327 C399.422217,262.999993 401.87955,262.839993 399.650217,261.02666 C400.298217,261.319993 400.948884,261.613327 401.586217,261.86666 C402.470217,262.22666 403.338217,262.533327 404.212884,262.86666 C403.83155,261.933327 403.700884,260.799993 403.026217,260.079993 C399.787551,256.679994 396.402217,253.38666 392.562217,249.54666 C392.764884,250.973327 392.894217,251.893327 393.016884,252.773327 C388.222217,251.853327 388.222217,251.853327 387.395551,253.919994 C385.526218,252.46666 383.634218,250.999994 381.479551,249.333327 C379.908884,246.079994 387.291551,249.999994 383.128884,244.599994 C380.102218,243.399994 380.102218,243.399994 379.204884,246.213333 C378.540884,245.626661 377.819551,245.106661 377.276884,244.479994 C376.580884,243.679994 376.028884,242.813327 375.375551,241.933327 C376.224884,241.613327 376.947551,241.399994 377.594218,241.093327 C377.764884,240.999994 377.698218,240.653327 377.772884,240.253327 C376.131551,238.613327 374.456885,236.813327 372.671551,235.226661 C372.150218,234.759994 371.316885,234.839994 370.626218,234.679994 C371.110218,235.426661 371.527551,236.173327 372.095551,236.893327 C372.642218,237.586661 373.448885,238.239994 373.927551,238.919994 C374.123551,239.186661 373.755551,239.506661 373.607551,239.906661 C371.487551,238.346661 369.455551,236.853327 366.996885,235.053327 C367.560885,233.973327 368.078218,232.973328 368.746218,231.693328 C365.274218,228.373328 361.760885,224.999994 357.910218,221.306661 L360.575552,218.639995 L342.434219,200.506662 C340.918219,200.813328 340.175552,202.266662 336.719552,200.373328 C334.063552,198.919995 335.298219,201.853328 336.630219,204.453328 C335.231552,203.279995 333.831552,202.119995 332.048886,200.626662 C332.943552,199.426662 333.658219,198.466662 334.475552,197.359995 C333.484886,196.173328 332.548886,195.039995 331.619552,193.919995 C331.714219,193.733328 331.715552,193.359995 331.906219,193.426662 C336.926219,195.106662 336.940885,195.093328 333.239552,189.213333 C331.090219,189.079995 328.940886,188.946662 326.684886,188.813329 C327.035552,189.866662 327.384886,190.906662 327.930219,192.546662 C325.580886,190.653329 323.754219,189.173329 320.558219,186.599995 C325.430219,188.199995 326.220886,186.879995 323.699552,182.626662 C323.162219,181.733329 323.684886,180.959995 323.735552,179.746662 C322.284886,179.479996 321.103553,179.706662 319.856886,178.919996 C318.839553,178.279996 317.746219,176.439996 316.136886,174.439996 C314.967553,173.693329 312.843553,172.586662 310.879553,170.986662 C308.986219,169.453329 306.07422,167.533329 307.372886,165.866663 C304.152886,162.919996 299.89822,162.559996 299.132886,157.413329 C296.67022,157.813329 294.699553,155.746663 292.571553,153.479996 C290.18222,150.919996 287.623553,148.49333 285.27422,145.439996 C286.260887,146.01333 287.248887,146.57333 288.651553,147.37333 C287.41022,145.546663 286.38622,144.039996 285.09022,142.146663 C283.064887,141.213333 280.564887,140.706663 278.791554,137.33333 C276.495554,136.41333 274.631554,134.786663 272.51022,132.359997 C270.499554,130.039997 267.874221,128.039997 266.695554,126.97333 C264.336887,123.239997 262.660887,120.586664 261.007554,117.97333 C254.788887,117.239997 254.788887,117.239997 249.975554,110.493331 C251.203554,110.359997 252.435554,110.226664 253.706221,110.106664 C251.291554,107.879997 248.510221,105.333331 245.639554,102.693331 C244.226221,102.226664 242.732888,102.026664 241.124888,101.106664 C239.532888,100.213333 237.940888,98.6533309 238.419555,97.2133331 C238.542221,96.8399976 238.116888,95.6799976 237.678221,95.2666643 C237.014221,94.653331 235.947555,94.1066643 235.358221,94.0399976 C234.330221,93.9199977 233.534221,94.1866643 232.640888,94.293331 L231.480888,93.1066643 C231.763555,92.3199977 232.046221,91.533331 232.608888,89.9599978 C231.136888,89.8399978 230.200888,89.7733311 229.122221,89.6799978 C227.892888,84.5199979 221.954222,81.8933313 219.516888,77.8666647 C216.387555,77.0399981 213.603555,75.1333315 210.912889,72.7733315 L210.768889,72.6533315 L210.538222,72.4399982 L210.076889,71.9999982 L209.152889,71.1199982 C208.538222,70.5199982 207.920889,69.9333316 207.300889,69.3333316 C206.068889,68.106665 204.826222,66.8799983 203.572889,65.6399984 C201.075556,63.1466651 198.547556,60.5999985 195.992889,58.1066652 C196.798222,57.8399986 198.460889,58.3466652 197.884889,57.3333319 C196.363556,54.6799986 194.195556,53.5466653 192.331556,52.3466654 C190.788889,51.3466654 189.120889,50.1333321 187.684889,49.1466654 C184.883556,45.4266655 182.612889,41.9333323 179.670223,38.719999 C177.603556,36.4533324 174.54489,34.3333325 172.307556,32.7733325 C169.863556,31.0666659 162.163556,23.9333327 161.219557,21.9999995 C158.918223,17.2933329 155.291557,13.8799997 152.062223,11.2133331 C150.686223,12.853333 149.282223,14.533333 148.130223,15.9066663 C144.690224,19.9199995 142.76889,22.4399994 139.099557,25.0133327 C137.762224,25.946666 134.328891,30.5866659 130.735557,34.8933325 C128.095557,36.6933324 124.947557,39.0933324 121.514224,42.2133331 C118.087558,45.3333322 114.371558,49.1866654 110.758224,53.733332 C110.050224,54.6266653 108.951558,55.8399986 108.128891,56.5466653 C104.826225,59.3599985 101.584891,62.3866651 98.4075581,65.5199984 C96.8182248,67.0799983 95.2448915,68.666665 93.6835582,70.2666649 L92.5155582,71.4666649 L91.8142249,72.1999982 L90.6235583,73.4799982 C87.454225,76.8933314 84.3302251,80.359998 80.7448918,83.2933313 C80.5462252,84.5466646 80.3915585,85.5066645 80.2502252,86.3999978 C79.7235585,86.8799978 79.2408919,87.4133311 79.1008919,87.4266645 C77.5208919,87.5066645 76.0822253,88.0399978 73.928892,90.2933311 C66.0622255,98.5066642 57.6488924,106.199997 50.0768926,114.759997 C45.2675594,120.186664 39.8622262,125.29333 34.7875597,130.599997 C23.7142266,142.17333 13.0782269,154.026663 2.64222713,165.986663 C-0.0991061308,169.133329 -0.524439453,170.946662 0.53156052,172.413329 L8.63156032,183.759995 C7.41022701,187.453329 10.9902269,186.679995 12.4195602,187.653329 C13.7288935,188.559995 14.7622268,189.626662 15.5262268,190.999995 C16.8822268,193.426662 19.7782267,194.346662 23.1208933,194.026662 C27.0115599,193.653328 27.8502265,196.119995 29.1515598,198.079995 C30.2355598,199.706662 30.5968931,201.866662 33.6302264,201.359995 C34.0395597,201.293328 34.4982263,201.426662 34.4982263,201.746662 C34.4955597,204.519995 36.8955596,205.039995 37.9422263,206.813328 C39.1608929,208.866661 39.5675595,211.653328 40.6902262,213.813328 C40.9915595,214.386661 42.6155595,213.786661 43.7475594,213.719995 C43.6942261,214.813328 42.1755595,217.173328 44.5262261,216.519995 C45.0328927,216.386661 45.4568927,216.799995 45.4608927,217.266661 C45.4835594,220.493328 48.878226,220.133328 50.7835593,221.346661 C51.6288926,221.893328 52.3648926,222.599994 52.8128925,223.519994 C54.3902258,226.786661 58.0448924,225.666661 63.4955589,219.986661 C73.4782254,209.533328 83.4635584,199.093328 93.4475582,188.639995 C99.0755581,182.733329 104.718225,176.853329 110.296891,170.919996 C115.396891,165.493329 120.423558,160.013329 125.474224,154.559996 C125.775557,154.226663 125.968891,153.813329 126.276891,153.506663 L146.446224,133.946663 L150.54489,129.906663 C150.615557,129.826663 150.675557,129.746663 150.726223,129.65333 C151.046223,129.05333 151.48089,128.266663 152.062223,127.399997 C152.183557,127.45333 152.310223,127.519997 152.442223,127.599997 C152.607557,127.69333 152.75289,127.946663 152.89689,128.13333 C153.04489,128.319997 153.190223,128.439997 153.466223,128.346663 C153.770223,128.239997 153.890223,128.599997 153.995557,128.839997 C154.05289,128.97333 154.111557,129.079997 154.226223,129.13333 C154.254223,129.146663 154.287557,129.159997 154.323557,129.159997 C154.623557,129.426663 154.923557,129.69333 155.227557,129.959997 C155.874223,130.506663 156.542223,131.039997 157.235557,131.546663 C159.866223,133.479997 162.310223,136.679997 164.88489,139.25333 C173.52489,147.919996 182.144889,156.613329 190.854222,165.199996 C194.846222,169.133329 199.028889,172.879996 203.127555,176.693329 C203.292889,176.853329 203.535555,176.986662 203.636889,177.133329 C207.528889,182.813329 213.408889,186.546662 218.015555,191.573329 C221.443555,195.319995 225.058222,198.986662 228.746221,202.493328 C230.968888,204.599995 233.491555,206.306662 236.536888,208.719995 C238.024888,211.506661 240.474221,214.306661 243.739554,214.573328 C249.011554,223.239994 255.722221,230.079994 264.363554,235.613327 C266.330221,236.866661 266.886221,238.106661 267.860887,239.746661 C268.47422,240.773327 270.81422,241.959994 271.51822,243.053327 C274.728887,247.999994 279.463554,251.719994 283.56622,255.90666 C286.76622,259.173327 290.148887,262.279993 293.484887,265.413327 C295.132886,266.959993 296.87022,268.38666 298.54222,269.90666 C300.847553,271.999993 303.16222,274.093326 305.404886,276.26666 C306.35422,277.18666 307.06222,278.533326 308.00222,279.293326 C310.880886,281.639993 314.168886,283.50666 316.638219,286.093326 C319.168886,288.746659 321.339552,291.426659 324.360886,293.253326 C325.199552,293.773326 326.524886,294.613326 326.840886,295.173326 C328.748886,298.559993 331.775552,300.093326 334.438219,302.266659 L334.380886,302.253326 L340.250219,308.746659 C340.675552,309.226659 341.022219,309.853326 341.456885,310.186659 C343.786219,311.999992 346.131552,313.746659 348.764885,315.733325 C347.412885,314.093325 346.175552,312.573326 344.567552,310.613326 C349.076885,311.893326 351.880885,316.919992 355.655552,319.546659 C354.415552,319.079992 353.175552,318.613325 351.872885,318.119992 C352.054218,318.546659 352.112885,318.946659 352.326218,319.146659 C353.144885,319.933325 354.130218,321.026659 354.843552,321.333325 C362.922218,324.919992 370.042218,332.839992 378.190218,339.199992 C377.067551,337.746658 376.172884,336.119992 375.408884,335.653325 C369.604885,332.173325 367.932885,328.013325 365.964885,323.613325 C365.311551,322.159992 363.483551,320.319992 361.743551,318.679992 C362.350218,320.066659 362.956885,321.453325 363.578218,322.866659 C358.976885,321.173325 357.327552,318.893325 357.772885,315.146659 C356.070218,312.319992 352.374218,311.373326 350.651552,307.786659 C357.492885,309.959992 362.878218,316.159992 368.508885,321.839992 C367.298218,320.013325 364.374218,318.039992 365.412885,316.333325 C368.046218,318.586659 370.691551,320.919992 373.386218,323.093325 C374.180885,323.733325 375.092884,323.973325 375.963551,324.346659 L375.950218,324.359992 C376.632884,324.759992 377.316884,325.159992 378.527551,325.853325 C377.714218,328.013325 374.878218,328.159992 375.616884,331.266658 C378.092884,331.386658 378.067551,331.413325 381.192884,334.359992 C382.828884,335.893325 384.570218,337.293325 387.268884,339.613325 C386.035551,337.519992 385.339551,336.346658 384.160884,334.359992 C386.207551,336.079992 387.487551,337.159992 389.116884,338.546658 C389.546217,337.719992 389.955551,336.933325 390.536884,335.813325 L384.242218,329.519992 L384.676884,328.959992 C390.259551,333.159992 395.488884,338.213333 400.824884,343.053325 C406.09155,347.826658 410.566217,353.719991 416.584883,358.159991 C416.27155,356.026658 416.03155,354.373324 415.74755,352.426658 C413.77955,350.653325 411.68355,348.759991 409.500884,346.786658 C408.134217,349.013325 413.51555,351.239991 413.566217,353.546658 C410.458217,351.999991 408.138217,348.853325 406.664884,346.493325 C405.510217,344.653325 405.564884,344.306658 403.984884,344.186658 C403.508884,344.146658 402.012884,342.533325 401.016884,341.599991 C397.408884,338.199992 393.784884,334.826658 390.236884,331.373325 C389.192884,330.359992 388.378217,329.079992 387.200884,327.599992 C389.420884,327.719992 391.155551,330.119992 393.258217,331.546658 C391.100884,329.293325 389.230217,327.333325 386.920884,324.933325 C388.230217,324.506659 389.390217,324.133325 390.710217,323.719992 C389.588884,322.239992 388.324884,320.586659 386.803551,318.586659 C388.040884,319.093325 388.959551,319.453325 390.224884,319.973325 C381.539551,311.679992 373.168885,303.679992 364.798218,295.679993 C373.486218,300.893326 380.271551,309.653326 388.492884,316.159992 C389.924884,315.879992 389.364884,313.826659 387.950218,312.439992 C384.999551,309.573326 382.684884,305.613326 378.880884,303.933326 C378.714218,303.853326 378.486218,303.826659 378.395551,303.719992 C374.238218,298.946659 369.334218,294.439993 365.938218,289.373326 L366.403551,288.906659 C368.140885,290.386659 370.766218,292.066659 371.431551,293.319993 C372.859551,296.026659 374.331551,296.519993 376.288884,297.679993 C381.730218,300.906659 386.600884,305.933326 391.614217,310.466659 C393.178217,311.879992 394.579551,314.159992 396.648884,314.279992 C395.622217,312.626659 394.602217,310.986659 393.455551,309.133326 C389.792884,306.906659 387.326218,303.626659 379.403551,292.866659 C381.695551,295.226659 384.840884,296.093326 386.328884,300.253326 C387.244884,302.826659 391.160884,305.133326 393.338217,305.839992 C396.096884,308.999992 398.472884,311.719992 401.43955,315.133325 C400.430217,314.639992 399.880884,314.373325 399.276884,314.093325 C399.171551,315.186659 399.054217,316.386659 398.851551,318.479992 C400.254217,317.239992 400.995551,316.173325 403.95555,318.506659 C404.74355,319.119992 405.908884,318.199992 407.320884,317.906659 L400.535551,311.119992 C400.472884,309.959992 400.107551,308.346659 402.39555,309.186659 L402.60355,309.373326 L402.53555,309.239992 C402.53555,309.239992 402.514217,309.226659 402.490217,309.213333 L402.374217,309.173326 C402.686217,307.599992 400.806217,307.293326 399.900884,306.413326 L382.275551,288.999993 C382.031551,288.746659 381.928884,288.359993 381.451551,287.453326 C388.582217,293.906659 395.423551,299.813326 401.966217,306.079992 C408.768884,312.613326 415.31555,319.439992 423.380883,327.013325 C422.032883,324.399992 421.384883,323.133325 420.290217,321.013325 C422.52755,322.933325 423.906217,324.106659 425.284883,325.279992 C424.390217,323.146659 422.44355,320.746659 424.496883,320.306659 L417.546217,313.359992 C414.612884,312.893326 412.366217,315.906659 406.894217,308.119992 C408.206217,307.653326 409.662217,307.119992 411.60355,306.426659 C410.130217,305.626659 408.51555,304.453326 408.25955,304.666659 C406.320884,306.346659 403.68755,303.399992 401.040884,300.706659 C399.636884,302.586659 396.584884,298.533326 393.994217,297.546659 C393.894217,296.106659 393.818217,295.013326 393.744884,293.959993 C393.256884,293.959993 392.763551,293.946659 392.031551,293.946659 C391.843551,293.159993 391.572884,292.586659 391.668884,292.319993 C391.922217,291.613326 392.076884,290.279993 392.734217,290.559993 C394.354217,291.253326 395.432884,291.466659 396.522217,291.173326 C396.986217,291.053326 399.254217,292.946659 400.532884,294.159993 C403.69155,297.133326 406.738217,300.253326 409.858217,303.293326 C411.402217,304.786659 413.008884,306.213333 414.58755,307.679992 L415.218217,307.186659 C413.642217,305.373326 411.81555,303.573326 410.558217,301.746659 C409.258217,299.853326 408.51155,297.946659 407.79555,296.573326 L390.386217,279.173326 L390.910217,278.58666 C398.243551,285.079993 405.286217,291.986659 412.400884,299.613326 C412.300884,300.106659 412.14755,300.853326 411.99955,301.573326 C412.376884,301.893326 412.724884,302.293326 413.00755,302.426659 C415.746217,303.786659 418.44755,304.906659 421.220883,306.506659 C422.26755,307.119992 423.816883,308.826659 424.46355,309.933326 C424.814217,310.533326 424.034217,311.413326 423.260883,311.333326 C421.510217,311.173326 419.44755,310.493326 416.63955,309.826659 C420.60755,313.679992 422.98355,317.293325 426.952883,319.133325 C429.838216,320.466659 429.124883,322.413325 430.390216,324.346659 C431.216883,324.266659 431.860883,324.199992 432.428883,324.146659 C435.098216,325.973325 433.222216,328.186658 436.350216,329.559992 C437.306216,329.973325 437.854216,329.133325 438.57155,328.813325 C435.066216,325.146659 431.562216,321.493325 428.026216,317.799992 C428.226216,317.706659 428.58355,317.546659 429.05555,317.346659 C427.74755,315.919992 426.45155,314.506659 424.99555,312.919992 C429.648883,314.159992 433.92355,317.119992 438.126216,321.826659 C438.862216,322.639992 439.990216,323.653325 440.22355,324.279992 C441.054216,326.546659 442.460883,327.813325 444.763549,329.199992 C446.094216,330.013325 447.523549,331.733325 450.094216,334.159992" id="path4784-path" transform="translate(225.0471, 184.6867) scale(-1, 1) rotate(-180) translate(-225.0471, -184.6867)"></path>
                <polygon id="path4786" transform="translate(401.0476, 68.6867) scale(-1, 1) rotate(-180) translate(-401.0476, -68.6867)" points="401.071551 68.6666649 401.040884 68.7066649 401.023551 68.6933316"></polygon>
                <path d="M438.75955,40.4666657 L438.712883,40.5733323 C438.71555,40.5733323 438.71955,40.5866657 438.71955,40.5866657 L438.57155,40.4266657 L438.632883,40.399999 L438.75955,40.4666657" id="path4788" transform="translate(438.6655, 40.4933) scale(-1, 1) rotate(-180) translate(-438.6655, -40.4933)"></path>
                <path d="M421.63955,46.4933322 C419.828883,44.8133322 418.148883,42.9333323 416.336883,41.239999 C409.67155,35.0533325 402.99955,28.8533326 396.335551,22.6666661 C394.444884,20.9066661 392.546217,18.9866662 391.735551,16.3866663 C398.234217,21.5733328 404.732884,26.746666 411.542217,32.1866659 L410.186217,33.5333325 C412.604884,37.0533324 413.788884,36.0533324 415.274217,36.1199991 L423.03955,43.8933322 C422.874217,44.7066655 422.72755,45.4266655 422.612883,45.9866655 L428.15155,51.5199987 C425.778217,50.1866654 423.670217,48.3999988 421.63955,46.4933322" id="path4790" transform="translate(409.9436, 33.9533) scale(-1, 1) rotate(-180) translate(-409.9436, -33.9533)"></path>
                <path d="M392.696884,6.87999983 C393.650217,6.55999984 394.366217,5.95999985 395.604884,5.23999987 C396.442217,7.57333314 396.992884,9.11999977 397.543551,10.6533331 C402.682217,12.7999997 407.842217,17.4533329 412.72355,24.6799994 C409.706217,22.1199994 407.490217,20.2399999 405.27555,18.3466662 L404.790217,19.1066662 L415.00355,29.3199993 C411.548884,26.6533327 408.57155,23.5066661 405.438217,20.5866662 C402.336884,17.6933329 400.250217,13.7199997 396.107551,11.733333 L404.946217,22.1333328 L404.74755,22.1333328 L389.870217,7.25333315 C390.667551,7.15999982 391.807551,7.17333315 392.696884,6.87999983" id="path4792" transform="translate(402.4369, 17.28) scale(-1, 1) rotate(-180) translate(-402.4369, -17.28)"></path>
                <path d="M408.938217,30.7733326 C419.836883,40.039999 425.17555,45.1999989 427.540883,48.9333321 C425.244883,46.9866655 423.440883,45.4533322 421.55555,43.8533322 C421.23955,44.2399989 420.936883,44.5999989 420.50755,45.1333322 C419.15155,43.9599989 417.276883,42.7733326 416.598217,41.6933323 C414.38355,38.1333324 411.338217,35.9466658 407.778217,33.3999992 C408.226217,32.3866659 408.58355,31.5733325 408.938217,30.7733326" id="path4794" transform="translate(417.6596, 39.8533) scale(-1, 1) rotate(-180) translate(-417.6596, -39.8533)"></path>
                <path d="M393.735551,26.3561892 C399.676884,31.1028557 405.64755,35.7695222 410.416884,41.9028554 C408.866217,42.9561887 407.396884,41.1161888 406.418217,39.5695222 C405.540884,38.1961889 405.096884,37.5828555 403.420884,36.3161889 C399.906217,33.636189 396.315551,30.2495224 393.735551,26.3561892" id="path4796" transform="translate(402.0762, 34.2848) scale(-1, 1) rotate(-180) translate(-402.0762, -34.2848)"></path>
                <path d="M440.09955,69.2799983 C438.73155,68.8533316 437.674216,68.8666649 436.700883,68.1599983 C435.406216,67.2133317 433.980883,65.7599984 432.96355,64.4399984 C431.330216,62.3333318 429.986216,60.1599985 428.950216,58.6399985 C432.392883,61.0933318 436.422216,64.3599984 440.09955,69.2799983" id="path4798" transform="translate(434.5249, 63.96) scale(-1, 1) rotate(-180) translate(-434.5249, -63.96)"></path>
                <path d="M366.239551,144.53333 C366.218218,144.519996 366.202218,144.519996 366.202218,144.519996 L366.226218,144.466663 L366.375551,144.57333 L366.378218,144.57333 L366.376885,144.57333 L366.378218,144.57333 L366.376885,144.57333 L366.356885,144.599996 C366.304885,144.57333 366.255551,144.546663 366.202218,144.519996 L366.239551,144.53333" id="path4800" transform="translate(366.2902, 144.5333) scale(-1, 1) rotate(-180) translate(-366.2902, -144.5333)"></path>
                <path d="M369.284885,140.879996 C367.822218,139.45333 367.974218,140.759996 367.438218,140.986663 C367.147551,141.119996 365.759551,139.959997 364.540885,139.17333 L366.356885,137.359997 C369.360885,138.799997 371.634218,141.239996 373.746218,144.226663 C372.747551,144.33333 371.967551,144.41333 371.462218,144.466663 C370.594218,142.986663 370.136885,141.719996 369.284885,140.879996" id="path4802" transform="translate(369.1436, 140.9133) scale(-1, 1) rotate(-180) translate(-369.1436, -140.9133)"></path>
                <path d="M443.170216,43.1999989 C445.360883,44.3999989 447.451549,45.5599989 449.771549,46.8266655 L448.860883,47.7466655 C450.636883,49.7733321 452.051549,51.3999987 453.466216,53.0266653 C449.994216,49.6399988 445.102216,47.7199988 443.170216,43.1999989" id="path4804" transform="translate(448.3182, 48.1133) scale(-1, 1) rotate(-180) translate(-448.3182, -48.1133)"></path>
                <polyline id="path4806" transform="translate(387.9542, 25.9933) scale(-1, 1) rotate(-180) translate(-387.9542, -25.9933)" points="380.556884 18.3333329 395.566217 33.3333325 395.294217 33.6533325 380.342218 18.7066662 380.556884 18.3333329"></polyline>
                <path d="M447.662216,40.20569 C447.146216,41.4323566 447.135549,42.7256899 444.718216,40.76569 C445.562216,38.56569 444.935549,37.4723567 441.751549,35.5256901 C440.74355,34.9123568 439.75555,34.4856901 438.75955,33.9923568 C438.942216,33.5656902 439.124883,33.1523568 439.306216,32.7390235 C442.058216,35.1923568 444.810216,37.6590234 447.662216,40.20569" id="path4808" transform="translate(443.2109, 37.2562) scale(-1, 1) rotate(-180) translate(-443.2109, -37.2562)"></path>
                <path d="M388.419551,27.5599993 C385.056884,26.786666 384.428884,26.2533327 380.654218,20.9999995 C383.914218,22.6533328 385.911551,25.7999994 388.419551,27.5599993" id="path4810" transform="translate(384.5369, 24.28) scale(-1, 1) rotate(-180) translate(-384.5369, -24.28)"></path>
                <path d="M400.975551,45.8399989 L400.432884,46.2133322 C398.240884,44.1466656 395.431551,42.5199989 393.819551,38.679999 L400.975551,45.8399989" id="path4812" transform="translate(397.3976, 42.4467) scale(-1, 1) rotate(-180) translate(-397.3976, -42.4467)"></path>
                <path d="M417.18755,41.6336991 C414.10355,38.9403658 411.262217,36.4603658 408.456884,34.0203659 C409.800884,33.5403659 413.61155,36.7803658 417.18755,41.6336991" id="path4814" transform="translate(412.8222, 37.8035) scale(-1, 1) rotate(-180) translate(-412.8222, -37.8035)"></path>
                <polyline id="path4816" transform="translate(406.1629, 33.1667) scale(-1, 1) rotate(-180) translate(-406.1629, -33.1667)" points="403.374217 29.9866659 409.41555 36.0266658 409.06355 36.3466658 402.910217 30.1866659 403.374217 29.9866659"></polyline>
                <path d="M423.436883,26.4933327 C425.744883,28.9333326 427.42355,30.7066659 429.93555,33.3599992 C425.208883,30.2133326 425.208883,30.2133326 423.436883,26.4933327" id="path4818" transform="translate(426.6862, 29.9267) scale(-1, 1) rotate(-180) translate(-426.6862, -29.9267)"></path>
                <path d="M402.60355,51.653332 C405.32355,54.133332 408.058217,56.6133319 411.770217,59.9999985 C406.77155,57.9599986 404.33155,55.173332 402.60355,51.653332" id="path4820" transform="translate(407.1869, 55.8267) scale(-1, 1) rotate(-180) translate(-407.1869, -55.8267)"></path>
                <polyline id="path4822" transform="translate(433.2529, 36.4733) scale(-1, 1) rotate(-180) translate(-433.2529, -36.4733)" points="436.610216 40.0133323 429.55555 33.5066658 429.904883 32.9333325 436.950216 39.079999 436.610216 40.0133323"></polyline>
                <polyline id="path4824" transform="translate(428.6442, 64.7) scale(-1, 1) rotate(-180) translate(-428.6442, -64.7)" points="431.474216 67.9199983 425.372883 62.1333318 425.836883 61.4799985 431.91555 67.1333317 431.474216 67.9199983"></polyline>
                <path d="M378.191551,130.479997 C378.784884,132.146663 379.303551,133.586663 380.006218,135.559997 C375.735551,130.839997 375.735551,130.839997 378.191551,130.479997" id="path4826" transform="translate(378.2681, 133.02) scale(-1, 1) rotate(-180) translate(-378.2681, -133.02)"></path>
                <path d="M415.564883,90.6533311 L420.688883,96.0799976 L420.13155,96.4933309 C418.67955,94.493331 415.85155,93.533331 415.564883,90.6533311" id="path4828" transform="translate(418.1269, 93.5733) scale(-1, 1) rotate(-180) translate(-418.1269, -93.5733)"></path>
                <path d="M383.068884,127.738636 C383.442218,126.005303 383.335551,124.378636 387.387551,126.831969 C385.472884,126.898636 386.978218,129.951969 383.068884,127.738636" id="path4830" transform="translate(385.2282, 127.0626) scale(-1, 1) rotate(-180) translate(-385.2282, -127.0626)"></path>
                <polyline id="path4832" transform="translate(440.7835, 64.82) scale(-1, 1) rotate(-180) translate(-440.7835, -64.82)" points="437.26355 61.1333318 444.706216 68.106665 444.408883 68.506665 436.860883 61.7199985 437.26355 61.1333318"></polyline>
                <polyline id="path4834" transform="translate(428.6342, 37.86) scale(-1, 1) rotate(-180) translate(-428.6342, -37.86)" points="430.71955 40.039999 426.29555 36.3733324 426.75955 35.6799991 430.972883 39.399999 430.71955 40.039999"></polyline>
                <polyline id="path4836" transform="translate(441.3182, 28.5533) scale(-1, 1) rotate(-180) translate(-441.3182, -28.5533)" points="439.37955 26.306666 443.798216 30.3999992 443.522216 30.7999992 438.838216 26.9733327 439.37955 26.306666"></polyline>
                <path d="M413.214217,102.719997 L408.18355,97.6799976 C411.040884,98.4533309 412.348884,99.7333308 413.214217,102.719997" id="path4838" transform="translate(410.6989, 100.2) scale(-1, 1) rotate(-180) translate(-410.6989, -100.2)"></path>
                <polyline id="path4840" transform="translate(370.3369, 33.3467) scale(-1, 1) rotate(-180) translate(-370.3369, -33.3467)" points="372.166218 35.2799991 368.310218 32.0799992 368.651551 31.4133325 372.363551 34.8533325 372.166218 35.2799991"></polyline>
                <path d="M420.416883,3.78666657 L425.632883,9.01333311 C421.988883,6.42666651 421.988883,6.42666651 420.416883,3.78666657" id="path4842" transform="translate(423.0249, 6.4) scale(-1, 1) rotate(-180) translate(-423.0249, -6.4)"></path>
                <path d="M404.820884,89.5199978 C405.238217,89.6133311 405.62755,89.6266644 406.07955,89.8133311 C406.642217,90.0533311 407.25555,90.4266644 407.84755,90.7599977 L408.220884,91.8266644 L405.392884,90.8399977 L404.820884,89.5199978" id="path4844" transform="translate(406.5209, 90.6733) scale(-1, 1) rotate(-180) translate(-406.5209, -90.6733)"></path>
                <path d="M427.514217,37.6133324 C426.82755,35.9066658 426.40355,34.8533325 425.70755,33.1333325 C428.51955,35.5999991 429.266216,36.7733324 427.514217,37.6133324" id="path4846" transform="translate(427.0813, 35.3733) scale(-1, 1) rotate(-180) translate(-427.0813, -35.3733)"></path>
                <path d="M368.424885,41.6771113 C369.882218,42.1571113 370.703551,42.423778 371.830218,42.7971113 C371.952885,45.1171112 370.908885,44.4771112 368.424885,41.6771113" id="path4848" transform="translate(370.1324, 42.9452) scale(-1, 1) rotate(-180) translate(-370.1324, -42.9452)"></path>
                <path d="M363.186218,144.599996 C364.227551,145.039996 365.270218,145.49333 366.895551,146.186663 C366.568885,146.81333 366.394218,147.146663 366.226218,147.466663 L363.306218,145.479996 L363.186218,144.599996" id="path4850" transform="translate(365.0409, 146.0333) scale(-1, 1) rotate(-180) translate(-365.0409, -146.0333)"></path>
                <polyline id="path4852" transform="translate(401.4022, 71.48) scale(-1, 1) rotate(-180) translate(-401.4022, -71.48)" points="400.254217 70.2799982 402.62755 72.3466649 402.498217 72.6799982 400.176884 70.8799982 400.254217 70.2799982"></polyline>
                <path d="M401.048884,68.7333316 C401.071551,68.7199983 401.023551,68.7466649 401.023551,68.7466649 L400.951551,68.6799983 L401.048884,68.7333316" id="path4854" transform="translate(401.0033, 68.7133) scale(-1, 1) rotate(-180) translate(-401.0033, -68.7133)"></path>
                <path d="M396.166217,68.7466649 C398.402217,70.7599982 399.686217,71.9199982 400.951551,73.0666648 C399.516884,72.4266649 397.976884,72.1999982 396.166217,68.7466649" id="path4856" transform="translate(398.5589, 70.9067) scale(-1, 1) rotate(-180) translate(-398.5589, -70.9067)"></path>
                <path d="M402.38355,46.3733322 C402.820884,46.5599988 403.354217,46.6666655 403.668884,46.9733322 C403.994217,47.3066655 404.10755,47.8399988 404.434217,48.5466655 C403.754217,48.1999988 403.134217,48.0133321 402.91955,47.7333321 C402.592884,47.3066655 402.548884,46.8266655 402.38355,46.3733322" id="path4858" transform="translate(403.4089, 47.46) scale(-1, 1) rotate(-180) translate(-403.4089, -47.46)"></path>
                <path d="M401.888884,30.7974155 C401.95555,31.1840822 402.02355,31.5707488 402.118217,32.1174155 C401.512884,31.7707488 401.060884,31.5307488 400.607551,31.2774155 C400.604884,30.9307488 400.434217,30.3840822 400.648884,30.3040822 C400.850217,30.2240822 401.458217,30.6107489 401.888884,30.7974155" id="path4860" transform="translate(401.3295, 31.2054) scale(-1, 1) rotate(-180) translate(-401.3295, -31.2054)"></path>
                <path d="M16.4995601,222.026661 C16.2675601,222.266661 15.9062268,222.399994 15.6008935,222.573328 L16.0942268,221.439994 L16.8982268,221.199994 C16.7715601,221.479994 16.7062268,221.813328 16.4995601,222.026661" id="path4862" transform="translate(16.2496, 221.8867) scale(-1, 1) rotate(-180) translate(-16.2496, -221.8867)"></path>
                <polyline id="path4864" transform="translate(409.0469, 1.1267) scale(-1, 1) rotate(-180) translate(-409.0469, -1.1267)" points="410.102217 2.25333328 407.922217 0.066666665 407.99155 5.68434189e-14 410.17155 2.17333328 410.102217 2.25333328"></polyline>
            </g>
            <circle id="Oval" stroke="#FFFFFF" stroke-width="55" cx="374.5" cy="374.5" r="301"></circle>
            <circle id="Oval" stroke="#72AB3A" stroke-width="55" cx="376.5" cy="376.5" r="349"></circle>
        </g>
    </g>
</svg>