<?xml version="1.0" encoding="UTF-8"?>
<svg width="512px" height="512px" viewBox="0 0 512 512" version="1.1" xmlns="http://www.w3.org/2000/svg" xmlns:xlink="http://www.w3.org/1999/xlink">
    <title>Group</title>
    <g id="Page-1" stroke="none" stroke-width="1" fill="none" fill-rule="evenodd">
        <g id="Group" fill-rule="nonzero">
            <path d="M256.022185,0 C114.606005,0 0,114.606005 0,256.022185 C0,397.37181 114.606005,512 256.022185,512 C397.37181,512 512,397.37181 512,256.022185 C512,114.606005 397.37181,0 256.022185,0 Z M256.022185,471.191299 C137.367477,471.191299 40.8197929,374.676892 40.8197929,256.044369 C40.8197929,137.389662 137.367477,40.8419776 256.022185,40.8419776 C374.6658,40.8419776 471.180207,137.389662 471.180207,256.044369 C471.191299,374.6658 374.6658,471.191299 256.022185,471.191299 Z" id="Shape" fill="#72AB3A"></path>
            <path d="M256.022185,74.2077213 C155.758568,74.2077213 74.196629,155.769661 74.196629,256.033277 C74.196629,356.263616 155.758568,437.803371 256.022185,437.803371 C356.252524,437.803371 437.803371,356.263616 437.803371,256.033277 C437.803371,155.758568 356.252524,74.2077213 256.022185,74.2077213 Z" id="Path" fill="#72AB3A"></path>
            <path d="M252.660239,346.8 C269.24526,346.8 282.690076,360.276229 282.690076,376.9 C282.690076,393.523771 269.24526,407 252.660239,407 C236.075217,407 222.630401,393.523771 222.630401,376.9 C222.630401,360.276229 236.075217,346.8 252.660239,346.8 Z M254.914466,106 C281.94132,106 302.962206,112.7725 318.227373,126.568333 C333.242292,140.364167 340.749751,159.678333 341,184.26 C341,206.333333 330.990054,227.905 310.469665,249.225833 L285.945298,273.305833 L285.194552,274.058333 C277.937341,282.586667 273.432866,294.125 272.181622,308.924167 C271.681125,313.940833 267.176649,317.954167 262.171676,317.954167 L248.192506,317.95518 C247.930539,317.968921 247.667778,317.968799 247.405017,317.954167 L238.646315,317.954167 C232.890596,317.954167 228.38612,313.188333 228.636369,307.419167 C229.136866,294.375833 231.389104,283.59 234.892585,275.061667 C239.146812,264.526667 248.155763,252.7375 261.168693,239.945 C274.431871,227.1525 282.690076,218.1225 286.193557,212.604167 C291.448779,204.5775 294.201514,195.5475 294.201514,186.015833 C294.201514,173.474167 290.948282,163.9425 284.692065,157.17 C278.435849,150.3975 269.176649,147.136667 257.164714,147.136667 C254.161731,147.136667 251.408996,147.3875 248.65626,147.889167 C245.903525,147.3875 242.900542,147.136667 239.897558,147.136667 C239.847072,147.136667 239.796625,147.136729 239.746216,147.136855 C242.716262,147.14221 245.683526,147.393013 248.406012,147.889167 C240.648304,149.143333 234.141839,152.153333 228.886617,156.919167 C223.631396,161.935833 220.127915,167.955833 218.876672,175.480833 C218.125926,180.246667 213.871699,183.5075 209.116974,183.5075 L180.088131,183.5075 C174.082164,183.5075 169.32744,178.490833 170.078186,172.470833 C172.330423,153.658333 180.33838,138.608333 193.601558,127.07 C207.865731,114.779167 226.133882,107.755833 248.406012,106.501667 C250.908589,106.637994 253.35203,106.839524 255.736977,107.106256 C252.716063,106.712175 249.605495,106.42704 246.406012,106.250833 C249.158747,106 251.911482,106 254.914466,106 Z M239.595105,147.137419 C230.184693,147.184326 222.123331,149.423754 215.686966,153.855702 C222.244978,149.582656 230.185307,147.342843 239.647309,147.136667 Z" id="Combined-Shape" fill="#FFFFFF"></path>
        </g>
    </g>
</svg>